<svg width="181" height="37" viewBox="0 0 181 37" fill="none" xmlns="http://www.w3.org/2000/svg">
<g clip-path="url(#clip0_29_1727)">
<g clip-path="url(#clip1_29_1727)">
<path d="M42.8202 4.50781H2.2537C1.00923 4.50781 0 5.51705 0 6.76151V29.2985C0 30.5429 1.00923 31.5522 2.2537 31.5522H42.8202C44.0647 31.5522 45.0739 30.5429 45.0739 29.2985V6.76151C45.0739 5.51705 44.0647 4.50781 42.8202 4.50781ZM3.38054 28.1716V23.6642C5.87017 23.6642 7.88794 25.682 7.88794 28.1716H3.38054ZM3.38054 12.3958V7.88836H7.88794C7.88794 10.378 5.87017 12.3958 3.38054 12.3958ZM22.537 24.7911C19.4248 24.7911 16.9027 21.7634 16.9027 18.03C16.9027 14.2959 19.4255 11.2689 22.537 11.2689C25.6485 11.2689 28.1712 14.2959 28.1712 18.03C28.1712 21.7648 25.6478 24.7911 22.537 24.7911ZM41.6934 28.1716H37.186C37.186 25.682 39.2038 23.6642 41.6934 23.6642V28.1716ZM41.6934 12.3958C39.2038 12.3958 37.186 10.378 37.186 7.88836H41.6934V12.3958Z" fill="#5C2684"/>
</g>
<path d="M54.4279 11.8367H69.2178L66.5753 15.268H58.5296V16.9836H68.4684L65.9837 20.1979H58.5296V25.0293H54.4279V11.8367ZM74.3933 11.8367V25.0293H70.3113V11.8367H74.3933ZM89.9525 25.2462C89.4398 25.2462 88.9468 25.1279 88.3158 24.5363L80.2306 17.2794V25.0293H76.5233V14.0848C76.5233 12.3297 77.5882 11.6198 78.7516 11.6198C79.2446 11.6198 79.7376 11.7381 80.3884 12.3297L88.4735 19.5866V11.8367H92.2006V22.7615C92.2006 24.5166 91.1357 25.2462 89.9525 25.2462ZM95.6556 11.8367H110.643L108 15.268H103.287V25.0293H99.2052V15.268H93.0131L95.6556 11.8367ZM126.484 22.4657L128.909 25.0293H123.447L120.509 21.5389H114.238V25.0293H110.156V18.2851H121.633C122.895 18.2851 123.881 17.7132 123.881 16.8061C123.881 15.7807 123.033 15.268 121.633 15.268H110.156L112.818 11.8367H121.298C124.295 11.8367 128.081 12.7833 128.081 16.5498C128.081 18.6006 126.799 20.2965 124.63 20.7304C125.084 21.0656 125.577 21.5389 126.484 22.4657ZM147.162 11.8367V19.2711C147.162 23.2545 144.421 25.2462 138.939 25.2462C132.589 25.2462 129.848 23.2545 129.848 19.2711V11.8367H133.91V19.2711C133.91 21.2234 134.738 21.8544 138.939 21.8544C142.074 21.8544 143.06 21.1248 143.06 19.2711V11.8367H147.162ZM154.172 17.1019H161.35C164.564 17.1019 166.299 18.3048 166.299 20.7107C166.299 23.4123 164.663 25.0293 160.64 25.0293H148.354L150.977 21.6375H160.955C161.921 21.6375 162.355 21.3614 162.355 20.6712C162.355 20.0007 161.921 19.7247 160.955 19.7247H153.777C150.385 19.7247 148.828 18.2062 148.828 15.9384C148.828 13.4537 150.484 11.8367 154.487 11.8367H165.944L163.322 15.268H154.172C153.225 15.268 152.771 15.5046 152.771 16.1751C152.771 16.8456 153.225 17.1019 154.172 17.1019ZM167.985 11.8367H182.972L180.329 15.268H175.616V25.0293H171.534V15.268H165.342L167.985 11.8367Z" fill="#5C2684"/>
</g>
<defs>
<clipPath id="clip0_29_1727">
<rect width="181" height="36.0591" fill="white"/>
</clipPath>
<clipPath id="clip1_29_1727">
<rect width="45.0739" height="36.0591" fill="white"/>
</clipPath>
</defs>
</svg>
